<svg width="26" height="26" viewBox="0 0 26 26" fill="none" xmlns="http://www.w3.org/2000/svg">
<path d="M21.6667 22.75H4.33333C3.13672 22.75 2.16667 21.78 2.16667 20.5833V5.41667C2.16667 4.22005 3.13672 3.25 4.33333 3.25H21.6667C22.8633 3.25 23.8333 4.22005 23.8333 5.41667V20.5833C23.8333 21.78 22.8633 22.75 21.6667 22.75ZM4.33333 7.58333V20.5833H21.6667V7.58333H4.33333ZM15.9326 18.0993L14.4018 16.5685L16.8848 14.0833L14.4007 11.5993L15.9326 10.0674L19.9485 14.0833L15.9337 18.0982L15.9326 18.0993ZM10.0674 18.0993L6.0515 14.0833L10.0674 10.0674L11.5992 11.5993L9.11517 14.0833L11.5982 16.5674L10.0674 18.0982V18.0993Z" fill="#1576C3"/>
</svg>
