<svg width="18" height="18" viewBox="0 0 18 18" fill="none" xmlns="http://www.w3.org/2000/svg">
<path d="M13.0888 4.5H4.91002C4.80102 4.5 4.69648 4.5433 4.6194 4.62038C4.54232 4.69746 4.49902 4.802 4.49902 4.911C4.49902 5.02 4.54232 5.12454 4.6194 5.20162C4.69648 5.2787 4.80102 5.322 4.91002 5.322H12.0988L4.62127 12.7995C4.58326 12.8375 4.5531 12.8827 4.53252 12.9323C4.51195 12.982 4.50136 13.0352 4.50136 13.089C4.50136 13.1428 4.51195 13.196 4.53252 13.2457C4.5531 13.2953 4.58326 13.3405 4.62127 13.3785C4.65929 13.4165 4.70442 13.4467 4.7541 13.4672C4.80377 13.4878 4.85701 13.4984 4.91077 13.4984C4.96454 13.4984 5.01778 13.4878 5.06745 13.4672C5.11712 13.4467 5.16226 13.4165 5.20027 13.3785L12.6778 5.90025V13.0897C12.6778 13.1988 12.7211 13.3033 12.7982 13.3804C12.8752 13.4574 12.9798 13.5007 13.0888 13.5007C13.1978 13.5007 13.3023 13.4574 13.3794 13.3804C13.4565 13.3033 13.4998 13.1988 13.4998 13.0897V4.9095C13.499 4.80088 13.4554 4.69695 13.3784 4.62028C13.3015 4.54361 13.1974 4.50039 13.0888 4.5Z" fill="#553F1D"/>
</svg>
