<svg width="60" height="60" viewBox="0 0 60 60" fill="none" xmlns="http://www.w3.org/2000/svg">
<path fill-rule="evenodd" clip-rule="evenodd" d="M21.5366 23.3997C20.6937 23.3997 19.8591 23.5658 19.0804 23.8883C18.3017 24.2109 17.5941 24.6836 16.9981 25.2796C16.4021 25.8756 15.9294 26.5832 15.6068 27.3619C15.2843 28.1406 15.1183 28.9752 15.1183 29.8181C15.1183 30.661 15.2843 31.4956 15.6068 32.2743C15.9294 33.053 16.4021 33.7606 16.9981 34.3566C17.5941 34.9526 18.3017 35.4253 19.0804 35.7479C19.8591 36.0704 20.6937 36.2365 21.5366 36.2365H27.955V23.3997H21.5366ZM27.955 19.6725H21.5366C19.834 19.6725 18.2012 18.9961 16.9973 17.7922C15.7934 16.5883 15.117 14.9554 15.117 13.2529C15.117 11.5503 15.7934 9.91742 16.9973 8.71351C18.2012 7.5096 19.834 6.83325 21.5366 6.83325H27.955V19.6725ZM31.6823 6.83325V19.6725H38.1006C39.7813 19.6394 41.382 18.9485 42.559 17.7482C43.7359 16.5479 44.3952 14.9339 44.3952 13.2529C44.3952 11.5718 43.7359 9.95782 42.559 8.75751C41.382 7.5572 39.7813 6.86632 38.1006 6.83325H31.6823ZM38.1006 23.3973C36.4159 23.397 34.7986 24.0593 33.5978 25.241C32.397 26.4227 31.709 28.0292 31.6823 29.7137V29.92C31.7028 31.1848 32.0967 32.4153 32.8143 33.4569C33.532 34.4986 34.5414 35.305 35.7159 35.7748C36.8903 36.2447 38.1774 36.357 39.4155 36.0977C40.6536 35.8384 41.7875 35.219 42.6747 34.3173C43.5619 33.4157 44.1629 32.272 44.4022 31.0299C44.6415 29.7878 44.5085 28.5027 44.0198 27.3359C43.5311 26.1692 42.7085 25.1729 41.6554 24.4721C40.6023 23.7714 39.3656 23.3974 38.1006 23.3973ZM21.5366 39.9637C20.2666 39.9632 19.0249 40.3394 17.9687 41.0446C16.9125 41.7499 16.0891 42.7525 15.6028 43.9257C15.1164 45.0989 14.9889 46.39 15.2364 47.6357C15.4838 48.8814 16.0952 50.0257 16.993 50.9239C17.8909 51.8222 19.035 52.4339 20.2806 52.6819C21.5262 52.9298 22.8173 52.8028 23.9907 52.3169C25.1641 51.831 26.1671 51.008 26.8727 49.9521C27.5783 48.8961 27.955 47.6546 27.955 46.3846V39.9637H21.5366Z" fill="#34402F"/>
</svg>
