<svg width="14" height="20" viewBox="0 0 14 20" fill="none" xmlns="http://www.w3.org/2000/svg">
<g clip-path="url(#clip0_155_646)">
<path d="M3.33333 20.0002C5.17333 20.0002 6.66667 18.5068 6.66667 16.6668V13.3335H3.33333C1.49333 13.3335 0 14.8268 0 16.6668C0 18.5068 1.49333 20.0002 3.33333 20.0002Z" fill="#0ACF83"/>
<path d="M0 9.99984C0 8.15984 1.49333 6.6665 3.33333 6.6665H6.66667V13.3332H3.33333C1.49333 13.3332 0 11.8398 0 9.99984Z" fill="#A259FF"/>
<path d="M0 3.33333C0 1.49333 1.49333 0 3.33333 0H6.66667V6.66667H3.33333C1.49333 6.66667 0 5.17333 0 3.33333Z" fill="#F24E1E"/>
<path d="M6.66602 0H9.99935C11.8393 0 13.3327 1.49333 13.3327 3.33333C13.3327 5.17333 11.8393 6.66667 9.99935 6.66667H6.66602V0Z" fill="#FF7262"/>
<path d="M13.3327 9.99984C13.3327 11.8398 11.8393 13.3332 9.99935 13.3332C8.15935 13.3332 6.66602 11.8398 6.66602 9.99984C6.66602 8.15984 8.15935 6.6665 9.99935 6.6665C11.8393 6.6665 13.3327 8.15984 13.3327 9.99984Z" fill="#1ABCFE"/>
</g>
<defs>
<clipPath id="clip0_155_646">
<rect width="13.3333" height="20" fill="white"/>
</clipPath>
</defs>
</svg>
