<svg width="60" height="60" viewBox="0 0 60 60" fill="none" xmlns="http://www.w3.org/2000/svg">
<path d="M29.8182 4.96973C26.5551 4.96973 23.3239 5.61245 20.3091 6.8612C17.2944 8.10996 14.5551 9.94028 12.2477 12.2477C7.58768 16.9077 4.96973 23.228 4.96973 29.8182C4.96973 40.8012 12.1012 50.1194 21.9661 53.4243C23.2085 53.6231 23.6061 52.8528 23.6061 52.1818V47.9825C16.7231 49.4734 15.257 44.6528 15.257 44.6528C14.114 41.7703 12.4988 41 12.4988 41C10.2376 39.4594 12.6728 39.5091 12.6728 39.5091C15.1576 39.6831 16.4746 42.0685 16.4746 42.0685C18.6364 45.8455 22.2891 44.7273 23.7055 44.1309C23.9291 42.5158 24.5752 41.4225 25.2709 40.8012C19.7546 40.18 13.9649 38.0431 13.9649 28.5758C13.9649 25.8176 14.9091 23.6061 16.5243 21.8418C16.2758 21.2206 15.4061 18.6364 16.7728 15.2818C16.7728 15.2818 18.86 14.6109 23.6061 17.8164C25.5691 17.2697 27.7061 16.9964 29.8182 16.9964C31.9303 16.9964 34.0673 17.2697 36.0303 17.8164C40.7764 14.6109 42.8637 15.2818 42.8637 15.2818C44.2303 18.6364 43.3606 21.2206 43.1122 21.8418C44.7273 23.6061 45.6715 25.8176 45.6715 28.5758C45.6715 38.0679 39.857 40.1552 34.3158 40.7764C35.2103 41.5467 36.0303 43.0625 36.0303 45.3734V52.1818C36.0303 52.8528 36.4279 53.6479 37.6952 53.4243C47.56 50.0946 54.6667 40.8012 54.6667 29.8182C54.6667 26.5551 54.024 23.3239 52.7752 20.3091C51.5265 17.2944 49.6961 14.5551 47.3887 12.2477C45.0813 9.94028 42.3421 8.10996 39.3273 6.8612C36.3126 5.61245 33.0814 4.96973 29.8182 4.96973Z" fill="#34402F"/>
</svg>
