<svg width="22" height="22" viewBox="0 0 22 22" fill="none" xmlns="http://www.w3.org/2000/svg">
<path d="M11 7.04688C10.2181 7.04688 9.45385 7.27872 8.80376 7.7131C8.15367 8.14747 7.64699 8.76487 7.34779 9.4872C7.04859 10.2095 6.9703 11.0044 7.12283 11.7712C7.27537 12.538 7.65186 13.2424 8.20472 13.7953C8.75757 14.3481 9.46195 14.7246 10.2288 14.8772C10.9956 15.0297 11.7905 14.9514 12.5128 14.6522C13.2351 14.353 13.8525 13.8463 14.2869 13.1962C14.7213 12.5462 14.9531 11.7819 14.9531 11C14.9518 9.95198 14.5348 8.94728 13.7938 8.20623C13.0527 7.46517 12.048 7.04824 11 7.04688ZM11 13.9219C10.4221 13.9219 9.85719 13.7505 9.37669 13.4295C8.89619 13.1084 8.52169 12.6521 8.30054 12.1182C8.07939 11.5842 8.02153 10.9968 8.13427 10.43C8.24701 9.86318 8.52529 9.34255 8.93392 8.93392C9.34255 8.52529 9.86318 8.24701 10.43 8.13427C10.9968 8.02153 11.5842 8.07939 12.1182 8.30054C12.6521 8.52169 13.1084 8.89619 13.4295 9.37669C13.7505 9.85719 13.9219 10.4221 13.9219 11C13.9219 11.7749 13.614 12.5181 13.0661 13.0661C12.5181 13.614 11.7749 13.9219 11 13.9219ZM15.125 2.23438H6.875C5.64465 2.23574 4.46508 2.7251 3.59509 3.59509C2.7251 4.46508 2.23574 5.64465 2.23438 6.875V15.125C2.23574 16.3554 2.7251 17.5349 3.59509 18.4049C4.46508 19.2749 5.64465 19.7643 6.875 19.7656H15.125C16.3554 19.7643 17.5349 19.2749 18.4049 18.4049C19.2749 17.5349 19.7643 16.3554 19.7656 15.125V6.875C19.7643 5.64465 19.2749 4.46508 18.4049 3.59509C17.5349 2.7251 16.3554 2.23574 15.125 2.23438ZM18.7344 15.125C18.7344 16.0823 18.3541 17.0003 17.6772 17.6772C17.0003 18.3541 16.0823 18.7344 15.125 18.7344H6.875C5.91773 18.7344 4.99968 18.3541 4.32279 17.6772C3.6459 17.0003 3.26562 16.0823 3.26562 15.125V6.875C3.26562 5.91773 3.6459 4.99968 4.32279 4.32279C4.99968 3.6459 5.91773 3.26562 6.875 3.26562H15.125C16.0823 3.26562 17.0003 3.6459 17.6772 4.32279C18.3541 4.99968 18.7344 5.91773 18.7344 6.875V15.125ZM16.3281 6.53125C16.3281 6.70122 16.2777 6.86737 16.1833 7.00869C16.0889 7.15002 15.9546 7.26016 15.7976 7.32521C15.6406 7.39025 15.4678 7.40727 15.3011 7.37411C15.1344 7.34095 14.9813 7.25911 14.8611 7.13892C14.7409 7.01873 14.659 6.86561 14.6259 6.69891C14.5927 6.5322 14.6097 6.35941 14.6748 6.20238C14.7398 6.04535 14.85 5.91113 14.9913 5.81671C15.1326 5.72228 15.2988 5.67188 15.4688 5.67188C15.6967 5.67188 15.9153 5.76242 16.0764 5.92358C16.2376 6.08474 16.3281 6.30333 16.3281 6.53125Z" fill="#5E7156"/>
</svg>
