<svg width="55" height="55" viewBox="0 0 55 55" fill="none" xmlns="http://www.w3.org/2000/svg">
<path d="M15.8074 11.3889C15.8068 12.5971 15.3263 13.7556 14.4715 14.6095C13.6167 15.4634 12.4578 15.9428 11.2496 15.9422C10.0414 15.9416 8.88288 15.461 8.02897 14.6063C7.17506 13.7515 6.69569 12.5925 6.69629 11.3843C6.69689 10.1761 7.17743 9.01764 8.03219 8.16374C8.88695 7.30983 10.0459 6.83045 11.2541 6.83106C12.4623 6.83166 13.6208 7.3122 14.4747 8.16696C15.3286 9.02172 15.808 10.1807 15.8074 11.3889ZM15.9441 19.3156H6.83296V47.8333H15.9441V19.3156ZM30.3396 19.3156H21.2741V47.8333H30.2485V32.8683C30.2485 24.5317 41.1135 23.7572 41.1135 32.8683V47.8333H50.1107V29.7706C50.1107 15.7167 34.0296 16.2406 30.2485 23.1422L30.3396 19.3156Z" fill="#34402F"/>
</svg>
