<svg width="44" height="44" viewBox="0 0 44 44" fill="none" xmlns="http://www.w3.org/2000/svg">
<path d="M31.0606 27.3333H29.0976L28.4018 26.6624C30.9213 23.7404 32.306 20.0098 32.303 16.1515C32.303 12.9571 31.3558 9.83432 29.581 7.17822C27.8063 4.52212 25.2837 2.45194 22.3324 1.22947C19.3811 0.0069982 16.1336 -0.312856 13.0005 0.310354C9.86743 0.933564 6.98951 2.47185 4.73068 4.73068C2.47185 6.98951 0.933564 9.86743 0.310354 13.0005C-0.312856 16.1336 0.0069982 19.3811 1.22947 22.3324C2.45194 25.2837 4.52212 27.8063 7.17822 29.581C9.83432 31.3558 12.9571 32.303 16.1515 32.303C20.1521 32.303 23.8297 30.837 26.6624 28.4018L27.3333 29.0976V31.0606L39.7576 43.46L43.46 39.7576L31.0606 27.3333ZM16.1515 27.3333C9.96425 27.3333 4.9697 22.3388 4.9697 16.1515C4.9697 9.96425 9.96425 4.9697 16.1515 4.9697C22.3388 4.9697 27.3333 9.96425 27.3333 16.1515C27.3333 22.3388 22.3388 27.3333 16.1515 27.3333Z" fill="#34402F"/>
</svg>
