<svg width="60" height="50" viewBox="0 0 60 50" fill="none" xmlns="http://www.w3.org/2000/svg">
<g clip-path="url(#clip0_188_272)">
<path d="M46.0225 28.6923C41.3355 28.6923 38.2418 24.9165 37.3752 23.4605C38.4841 14.2103 41.7361 11.2886 46.0225 11.2886C50.2623 11.2886 53.5609 14.8218 53.5609 19.9953C53.5609 25.1688 50.2623 28.702 46.0225 28.702V28.6923ZM46.0225 5.61035C38.3909 5.61035 34.1139 10.7936 32.8839 16.1321C31.4955 13.4143 30.4705 9.77441 29.6691 6.39657H19.1209V20.0827C19.1209 25.0426 16.9498 28.7214 12.71 28.7214C8.47023 28.7214 6.03818 25.0523 6.03818 20.0827L6.08477 6.39657H0V20.0827C0 24.072 1.23932 27.6925 3.50364 30.2841C5.83318 32.9534 9.02 34.3414 12.71 34.3414C20.0527 34.3414 25.1777 28.4787 25.1777 20.0827V10.8809C25.9418 13.9094 27.7682 19.7235 31.2625 24.8194L28.0011 44.174H34.1884L36.3409 30.4588C37.0491 31.0703 37.8039 31.6236 38.5959 32.1089C40.6646 33.4678 43.0407 34.2346 45.482 34.322C45.482 34.322 45.8548 34.3414 46.0505 34.3414C53.6168 34.3414 59.6457 28.2361 59.6457 19.9953C59.6457 11.7545 53.6075 5.62006 46.0411 5.62006L46.0225 5.61035Z" fill="#34402F"/>
</g>
<defs>
<clipPath id="clip0_188_272">
<rect width="59.6364" height="49.697" fill="white"/>
</clipPath>
</defs>
</svg>
